HIERARCHY
ROOT Root
{
  OFFSET 0.0 0.0 0.0
  CHANNELS 6 Xposition Yposition Zposition Zrotation Yrotation Xrotation
  JOINT Hips
  {
    OFFSET 0.0 100.0 0.0
    CHANNELS 6 Xposition Yposition Zposition Zrotation Yrotation Xrotation
    JOINT Spine1
    {
      OFFSET 5.003913 -0.037094 -0.013727
      CHANNELS 3 Zrotation Yrotation Xrotation
      JOINT Spine2
      {
        OFFSET 7.125363 -1e-06 0.0
        CHANNELS 3 Zrotation Yrotation Xrotation
        JOINT Chest
        {
          OFFSET 7.594027 1e-06 0.0
          CHANNELS 3 Zrotation Yrotation Xrotation
          JOINT Neck1
          {
            OFFSET 26.313086 -0.460272 -0.181672
            CHANNELS 3 Zrotation Yrotation Xrotation
            JOINT Neck2
            {
              OFFSET 8.045911 0.0 0.0
              CHANNELS 3 Zrotation Yrotation Xrotation
              JOINT Head
              {
                OFFSET 6.432774 0.0 0.0
                CHANNELS 3 Zrotation Yrotation Xrotation
                JOINT HeadEnd
                {
                  OFFSET 16.169773 0.06451 0.00362
                  CHANNELS 3 Zrotation Yrotation Xrotation
                }
                JOINT Jaw
                {
                  OFFSET 0.108741 3.12938 0.002639
                  CHANNELS 3 Zrotation Yrotation Xrotation
                }
                JOINT LeftEye
                {
                  OFFSET 4.45173 8.166359 3.206392
                  CHANNELS 3 Zrotation Yrotation Xrotation
                }
                JOINT RightEye
                {
                  OFFSET 4.436895 8.135758 -3.222429
                  CHANNELS 3 Zrotation Yrotation Xrotation
                }
              }
            }
          }
          JOINT LeftShoulder
          {
            OFFSET 23.218927 5.195579 1.621656
            CHANNELS 3 Zrotation Yrotation Xrotation
            JOINT LeftArm
            {
              OFFSET 15.902118 2e-06 -2e-06
              CHANNELS 3 Zrotation Yrotation Xrotation
              JOINT LeftForeArm
              {
                OFFSET 28.739307 0.0 -1e-06
                CHANNELS 3 Zrotation Yrotation Xrotation
                JOINT LeftHand
                {
                  OFFSET 27.093981 -4e-06 0.0
                  CHANNELS 3 Zrotation Yrotation Xrotation
                  JOINT LeftHandThumb1
                  {
                    OFFSET 2.276781 3.380274 0.83384
                    CHANNELS 3 Zrotation Yrotation Xrotation
                    JOINT LeftHandThumb2
                    {
                      OFFSET 4.705309 -1e-06 -1e-06
                      CHANNELS 3 Zrotation Yrotation Xrotation
                      JOINT LeftHandThumb3
                      {
                        OFFSET 2.798515 0.0 3e-06
                        CHANNELS 3 Zrotation Yrotation Xrotation
                        JOINT LeftHandThumbEnd
                        {
                          OFFSET 3.180793 4e-06 -4e-06
                          CHANNELS 3 Zrotation Yrotation Xrotation
                        }
                      }
                    }
                  }
                  JOINT LeftHandIndex1
                  {
                    OFFSET 3.247786 2.352677 0.137192
                    CHANNELS 3 Zrotation Yrotation Xrotation
                    JOINT LeftHandIndex2
                    {
                      OFFSET 6.367095 1e-06 0.0
                      CHANNELS 3 Zrotation Yrotation Xrotation
                      JOINT LeftHandIndex3
                      {
                        OFFSET 3.662364 0.0 0.0
                        CHANNELS 3 Zrotation Yrotation Xrotation
                        JOINT LeftHandIndex4
                        {
                          OFFSET 2.329242 4e-06 -4e-06
                          CHANNELS 3 Zrotation Yrotation Xrotation
                          JOINT LeftHandIndexEnd
                          {
                            OFFSET 2.767823 1e-06 0.0
                            CHANNELS 3 Zrotation Yrotation Xrotation
                          }
                        }
                      }
                    }
                  }
                  JOINT LeftHandMiddle1
                  {
                    OFFSET 3.163612 0.945023 -0.406112
                    CHANNELS 3 Zrotation Yrotation Xrotation
                    JOINT LeftHandMiddle2
                    {
                      OFFSET 6.276789 3e-06 0.0
                      CHANNELS 3 Zrotation Yrotation Xrotation
                      JOINT LeftHandMiddle3
                      {
                        OFFSET 4.35652 -1e-06 4e-06
                        CHANNELS 3 Zrotation Yrotation Xrotation
                        JOINT LeftHandMiddle4
                        {
                          OFFSET 2.996877 0.0 8e-06
                          CHANNELS 3 Zrotation Yrotation Xrotation
                          JOINT LeftHandMiddleEnd
                          {
                            OFFSET 2.323256 3e-06 -4e-06
                            CHANNELS 3 Zrotation Yrotation Xrotation
                          }
                        }
                      }
                    }
                  }
                  JOINT LeftHandRing1
                  {
                    OFFSET 2.882606 -0.309162 0.107445
                    CHANNELS 3 Zrotation Yrotation Xrotation
                    JOINT LeftHandRing2
                    {
                      OFFSET 6.033198 0.0 4e-06
                      CHANNELS 3 Zrotation Yrotation Xrotation
                      JOINT LeftHandRing3
                      {
                        OFFSET 4.350578 3e-06 0.0
                        CHANNELS 3 Zrotation Yrotation Xrotation
                        JOINT LeftHandRing4
                        {
                          OFFSET 2.651321 2e-06 -7e-06
                          CHANNELS 3 Zrotation Yrotation Xrotation
                          JOINT LeftHandRingEnd
                          {
                            OFFSET 1.937663 1e-06 -4e-06
                            CHANNELS 3 Zrotation Yrotation Xrotation
                          }
                        }
                      }
                    }
                  }
                  JOINT LeftHandPinky1
                  {
                    OFFSET 2.865315 -1.525436 0.575687
                    CHANNELS 3 Zrotation Yrotation Xrotation
                    JOINT LeftHandPinky2
                    {
                      OFFSET 5.54936 1e-06 -8e-06
                      CHANNELS 3 Zrotation Yrotation Xrotation
                      JOINT LeftHandPinky3
                      {
                        OFFSET 3.070974 0.0 -4e-06
                        CHANNELS 3 Zrotation Yrotation Xrotation
                        JOINT LeftHandPinky4
                        {
                          OFFSET 1.549672 1e-06 0.0
                          CHANNELS 3 Zrotation Yrotation Xrotation
                          JOINT LeftHandPinkyEnd
                          {
                            OFFSET 1.952123 0.0 0.0
                            CHANNELS 3 Zrotation Yrotation Xrotation
                          }
                        }
                      }
                    }
                  }
                }
              }
            }
          }
          JOINT RightShoulder
          {
            OFFSET 23.161716 5.296122 -1.380114
            CHANNELS 3 Zrotation Yrotation Xrotation
            JOINT RightArm
            {
              OFFSET -16.027195 -2e-06 1.1e-05
              CHANNELS 3 Zrotation Yrotation Xrotation
              JOINT RightForeArm
              {
                OFFSET -28.736639 4e-06 2e-06
                CHANNELS 3 Zrotation Yrotation Xrotation
                JOINT RightHand
                {
                  OFFSET -27.133619 6e-06 0.0
                  CHANNELS 3 Zrotation Yrotation Xrotation
                  JOINT RightHandThumb1
                  {
                    OFFSET -2.274328 -3.351035 -0.83067
                    CHANNELS 3 Zrotation Yrotation Xrotation
                    JOINT RightHandThumb2
                    {
                      OFFSET -4.703594 -3e-06 2e-06
                      CHANNELS 3 Zrotation Yrotation Xrotation
                      JOINT RightHandThumb3
                      {
                        OFFSET -2.794935 -4e-06 -3e-06
                        CHANNELS 3 Zrotation Yrotation Xrotation
                        JOINT RightHandThumbEnd
                        {
                          OFFSET -3.183852 4e-06 1e-06
                          CHANNELS 3 Zrotation Yrotation Xrotation
                        }
                      }
                    }
                  }
                  JOINT RightHandIndex1
                  {
                    OFFSET -3.253496 -2.33755 -0.127667
                    CHANNELS 3 Zrotation Yrotation Xrotation
                    JOINT RightHandIndex2
                    {
                      OFFSET -6.344434 0.0 0.0
                      CHANNELS 3 Zrotation Yrotation Xrotation
                      JOINT RightHandIndex3
                      {
                        OFFSET -3.654871 0.0 -8e-06
                        CHANNELS 3 Zrotation Yrotation Xrotation
                        JOINT RightHandIndex4
                        {
                          OFFSET -2.327586 -1e-06 0.0
                          CHANNELS 3 Zrotation Yrotation Xrotation
                          JOINT RightHandIndexEnd
                          {
                            OFFSET -2.770001 3e-06 8e-06
                            CHANNELS 3 Zrotation Yrotation Xrotation
                          }
                        }
                      }
                    }
                  }
                  JOINT RightHandMiddle1
                  {
                    OFFSET -3.168223 -0.944764 0.411762
                    CHANNELS 3 Zrotation Yrotation Xrotation
                    JOINT RightHandMiddle2
                    {
                      OFFSET -6.266691 -1e-06 -4e-06
                      CHANNELS 3 Zrotation Yrotation Xrotation
                      JOINT RightHandMiddle3
                      {
                        OFFSET -4.348901 0.0 0.0
                        CHANNELS 3 Zrotation Yrotation Xrotation
                        JOINT RightHandMiddle4
                        {
                          OFFSET -3.00024 2e-06 -4e-06
                          CHANNELS 3 Zrotation Yrotation Xrotation
                          JOINT RightHandMiddleEnd
                          {
                            OFFSET -2.321477 -4e-06 -4e-06
                            CHANNELS 3 Zrotation Yrotation Xrotation
                          }
                        }
                      }
                    }
                  }
                  JOINT RightHandRing1
                  {
                    OFFSET -2.885654 0.293261 -0.119232
                    CHANNELS 3 Zrotation Yrotation Xrotation
                    JOINT RightHandRing2
                    {
                      OFFSET -6.032835 -1e-06 -4e-06
                      CHANNELS 3 Zrotation Yrotation Xrotation
                      JOINT RightHandRing3
                      {
                        OFFSET -4.33881 0.0 -4e-06
                        CHANNELS 3 Zrotation Yrotation Xrotation
                        JOINT RightHandRing4
                        {
                          OFFSET -2.654903 -4e-06 -4e-06
                          CHANNELS 3 Zrotation Yrotation Xrotation
                          JOINT RightHandRingEnd
                          {
                            OFFSET -1.935122 0.0 4e-06
                            CHANNELS 3 Zrotation Yrotation Xrotation
                          }
                        }
                      }
                    }
                  }
                  JOINT RightHandPinky1
                  {
                    OFFSET -2.866241 1.503904 -0.60527
                    CHANNELS 3 Zrotation Yrotation Xrotation
                    JOINT RightHandPinky2
                    {
                      OFFSET -5.553177 -2e-06 0.0
                      CHANNELS 3 Zrotation Yrotation Xrotation
                      JOINT RightHandPinky3
                      {
                        OFFSET -3.062664 -1e-06 -4e-06
                        CHANNELS 3 Zrotation Yrotation Xrotation
                        JOINT RightHandPinky4
                        {
                          OFFSET -1.546529 2e-06 4e-06
                          CHANNELS 3 Zrotation Yrotation Xrotation
                          JOINT RightHandPinkyEnd
                          {
                            OFFSET -1.952341 0.0 -4e-06
                            CHANNELS 3 Zrotation Yrotation Xrotation
                          }
                        }
                      }
                    }
                  }
                }
              }
            }
          }
        }
      }
    }
    JOINT LeftLeg
    {
      OFFSET -8.443107 2.567604 10.043214
      CHANNELS 3 Zrotation Yrotation Xrotation
      JOINT LeftShin
      {
        OFFSET 43.229198 1e-06 -1e-06
        CHANNELS 3 Zrotation Yrotation Xrotation
        JOINT LeftFoot
        {
          OFFSET 42.298611 1e-06 1e-06
          CHANNELS 3 Zrotation Yrotation Xrotation
          JOINT LeftToeBase
          {
            OFFSET 14.165858 1e-06 0.0
            CHANNELS 3 Zrotation Yrotation Xrotation
            JOINT LeftToeEnd
            {
              OFFSET 6.7141 -0.234461 0.0
              CHANNELS 3 Zrotation Yrotation Xrotation
            }
          }
        }
      }
    }
    JOINT RightLeg
    {
      OFFSET -8.303923 2.592729 -10.047278
      CHANNELS 3 Zrotation Yrotation Xrotation
      JOINT RightShin
      {
        OFFSET -43.369682 0.0 1e-06
        CHANNELS 3 Zrotation Yrotation Xrotation
        JOINT RightFoot
        {
          OFFSET -42.260784 4e-06 2e-06
          CHANNELS 3 Zrotation Yrotation Xrotation
          JOINT RightToeBase
          {
            OFFSET -14.222245 -2e-06 -1e-06
            CHANNELS 3 Zrotation Yrotation Xrotation
            JOINT RightToeEnd
            {
              OFFSET -6.660062 0.232574 -2e-06
              CHANNELS 3 Zrotation Yrotation Xrotation
            }
          }
        }
      }
    }
  }
}
MOTION
Frames: 4
Frame Time: 0.03333333333333333
0.0 0.0 0.0 0.0 -0.0 0.0 16.372309 97.908669 320.001251 86.443779 2.400879 98.577118 1.572296 1.144755 0.099681 -10.192681 -0.491099 -1.790632 16.243891 2.593121 -3.777022 17.157896 1.750577 2.117248 -2.43238 -0.719824 -0.737162 -34.619019 -3.678221 0.708578 7e-06 0.0 0.0 0.002461 -0.007301 -0.114025 0.019526 0.004584 -0.10848 0.042549 -0.025338 -0.118885 -128.212845 -76.471939 144.484619 40.846123 -49.921127 -1.609949 33.634441 0.434394 0.059697 -0.384981 2.335058 4.088212 17.636732 -26.32292 52.41151 -19.466848 -14.39573 29.410652 3e-06 -8.774928 1e-06 16.073063 -17.993608 5.925366 -0.609777 -1.795666 -3.889352 -4.807137 -11.046911 -2.937874 -1e-06 -20.976269 1e-06 -5.020051 -25.033953 -4.031942 5e-06 5e-06 -3e-06 -10.63461 -5.687015 -3.565603 10.573375 -17.923109 -3.113937 0.0 -13.821374 -0.0 -0.501783 -31.182034 -4.027086 -11.264938 -59.259083 7.059392 -13.982815 -7.150252 -2.875052 13.772857 -8.401563 -3.218278 0.347723 -34.212013 0.771666 -0.963055 -17.733662 2.621067 -0.0 -0.0 -1e-06 -17.346556 -20.095364 -4.201789 21.757761 -1.638383 3.866454 0.0 -6.338898 2e-06 -1.697608 -22.592104 -6.194107 -0.0 -4e-06 -3e-06 38.187538 -71.513199 160.894455 29.094276 -53.355003 4.339968 27.399624 -0.151636 0.010068 0.420943 -8.313603 14.653358 22.182316 -20.376087 49.933693 -16.702007 -16.74371 28.476841 2e-06 -12.690777 -1e-06 16.477772 -17.894474 2.32614 -0.10592 -1.513869 -4.275914 -5.039099 -5.612937 -2.95358 -0.0 -11.020691 2e-06 -6.111403 -15.895645 -3.840531 -1e-06 1e-06 0.0 -10.283462 -5.680341 -4.341867 11.028415 -11.302533 -2.372659 -1.384287 -14.238803 -6.32021 -0.625449 -26.924759 -3.827676 -4.077689 -50.135277 -4.213508 -13.708648 -7.363546 -3.720959 18.141352 -14.052898 -3.242715 0.0 -18.787569 -1e-06 -0.429724 -8.456214 2.555555 1e-06 1e-06 1e-06 -15.923697 -20.094673 -5.473608 30.419542 -7.190894 1.735944 2e-06 -8.163051 -0.0 -1.86193 -22.861938 -6.168064 -0.0 3e-06 1e-06 173.995346 -10.566332 -3.156456 73.70665 -0.435798 0.234699 -60.287746 2.051572 1.286209 -9.758412 1.59171 2.237435 -1.000002 -0.0 -1e-06 -15.392892 6.559218 -8.606791 22.389324 -0.022865 -0.249815 -75.279549 -9.824194 1.685121 -5.501749 0.753768 1.668405 -1.000005 -0.0 -0.0 
0.0 0.0 0.0 0.0 -0.0 0.0 16.427235 98.989754 325.376953 87.45314 2.760587 97.217255 1.843796 0.933392 0.374963 -10.079826 -0.610822 -1.095587 16.104574 1.663306 -3.232536 17.905441 1.80776 2.231411 -2.422258 -0.738272 -0.785789 -34.0005 -3.552335 0.321742 6e-06 -0.0 -0.0 0.016708 -0.006157 -0.105066 0.010875 0.001084 -0.094414 0.029666 -0.020908 -0.115241 -125.400085 -75.999893 141.819046 39.404228 -51.688534 0.186897 31.483566 0.154417 0.123463 -0.583338 1.55852 5.173532 17.636646 -26.322802 52.411415 -19.466791 -14.39566 29.410587 9e-06 -8.774888 1e-06 16.16308 -17.963108 5.861824 -0.609779 -1.795664 -3.889341 -4.807129 -11.046885 -2.937869 -1.4e-05 -20.976198 -2.8e-05 -5.020019 -25.033869 -4.031976 5e-06 1e-06 1e-06 -10.634579 -5.687009 -3.565598 10.573318 -17.92305 -3.113937 -8e-06 -13.821324 -2e-05 -0.501762 -31.181908 -4.027133 -11.359853 -59.310131 7.060213 -13.982774 -7.150246 -2.875049 13.772798 -8.401527 -3.218272 0.347723 -34.211872 0.771608 -0.963034 -17.733582 2.621017 -1e-06 -0.0 -1e-06 -17.346512 -20.095333 -4.20179 21.757677 -1.638354 3.866443 -4e-06 -6.338874 -8e-06 -1.697605 -22.592024 -6.194126 -0.0 -3e-06 -1e-06 36.56916 -72.56842 162.142593 34.117825 -52.870358 -0.50545 27.388865 -0.121041 -0.036643 0.703105 -6.736627 14.010594 22.182198 -20.375999 49.933548 -16.701918 -16.743631 28.476711 -7e-06 -12.690695 4e-06 16.418684 -17.81666 2.307982 -0.105917 -1.51386 -4.275898 -5.039068 -5.612902 -2.95357 7e-06 -11.02061 -0.0 -6.111341 -15.895501 -3.840518 -2e-06 -0.0 2e-06 -10.283413 -5.680311 -4.341855 11.028358 -11.302465 -2.372652 -1.384272 -14.238686 -6.320177 -0.625418 -26.924492 -3.827653 -4.235021 -49.894867 -4.208681 -13.708581 -7.363507 -3.720951 18.141258 -14.052814 -3.242702 7e-06 -18.787424 0.0 -0.429718 -8.456141 2.55554 2e-06 -2e-06 -1e-06 -15.923606 -20.094564 -5.473607 30.419382 -7.190863 1.735927 3e-06 -8.16299 3e-06 -1.861904 -22.861727 -6.168008 -2e-06 -5e-06 -4e-06 168.41777 -9.519867 -4.014315 74.121155 -0.222127 0.190186 -63.949669 1.144793 1.778816 -9.96698 1.585895 2.161701 -1.0 0.0 0.0 -9.025935 6.649602 -6.637396 18.075031 -0.021611 -0.198094 -76.618355 -9.800488 1.882939 -5.415592 0.750014 1.671607 -1.000004 -0.0 0.0 
0.0 0.0 0.0 0.0 -0.0 0.0 16.522015 99.722626 330.718353 88.530579 2.957002 95.55764 2.052053 0.765288 0.616928 -9.995153 -0.641912 -0.337975 15.883009 0.632669 -2.555218 18.504194 1.359008 2.351291 -2.461103 -0.734816 -0.915869 -33.393421 -3.434138 -0.10057 6e-06 -0.0 -0.0 0.027383 -0.003058 -0.090671 -0.010211 -0.001011 -0.078434 0.000303 -0.014509 -0.103898 -123.24884 -75.195992 139.856873 36.525726 -53.220528 3.106773 30.963646 0.025122 0.156906 -0.550007 0.368949 5.653707 17.636738 -26.322947 52.41153 -19.466814 -14.395684 29.410624 -5e-06 -8.7749 -7e-06 16.232038 -17.980614 5.869191 -0.609779 -1.795662 -3.889351 -4.807118 -11.046888 -2.937872 1.5e-05 -20.976233 6e-06 -5.020003 -25.033897 -4.031927 5e-06 -1e-06 -0.0 -10.634586 -5.686998 -3.56561 10.573351 -17.923086 -3.113918 8e-06 -13.821344 7e-06 -0.501768 -31.181952 -4.027054 -11.489144 -59.54298 7.099316 -13.982784 -7.150231 -2.875058 13.77282 -8.401556 -3.218265 0.347748 -34.211948 0.771676 -0.963046 -17.733624 2.621073 -1e-06 -0.0 1e-06 -17.346504 -20.095324 -4.201811 21.757694 -1.638395 3.866457 5e-06 -6.338887 4e-06 -1.697587 -22.592043 -6.19409 -2e-06 -3e-06 0.0 35.741859 -74.306465 162.434341 38.647038 -52.558342 -4.884584 28.512091 -0.08384 -0.043582 1.005592 -5.577264 13.317143 22.182209 -20.376003 49.933495 -16.70191 -16.743607 28.476677 -1.4e-05 -12.690675 4e-06 16.287487 -17.780373 2.404659 -0.105919 -1.513862 -4.275895 -5.039062 -5.612899 -2.953569 1.4e-05 -11.020608 4e-06 -6.111319 -15.89549 -3.840508 0.0 -1e-06 -0.0 -10.283405 -5.680306 -4.341856 11.02835 -11.302469 -2.372642 -1.384262 -14.23868 -6.320163 -0.625414 -26.924484 -3.827624 -4.409364 -49.742199 -4.046455 -13.708574 -7.363501 -3.720951 18.141243 -14.052821 -3.242691 2.1e-05 -18.787416 -0.0 -0.429709 -8.456129 2.555535 1e-06 4e-06 -1e-06 -15.923594 -20.094561 -5.473598 30.419352 -7.190876 1.73593 7e-06 -8.162988 3e-06 -1.861891 -22.861721 -6.167997 0.0 -2e-06 1e-06 163.814667 -8.482052 -5.893894 70.337601 -0.019782 0.061147 -66.406952 1.351035 1.823278 -10.235643 1.561784 2.091197 -1.000008 0.0 0.0 -2.768094 6.256764 -4.668852 13.46137 -0.007194 -0.176352 -77.535332 -9.366133 1.965847 -5.50858 0.711903 1.662472 -1.000005 -0.0 0.0 
0.0 0.0 0.0 0.0 -0.0 0.0 16.713652 99.945847 336.055176 89.271591 2.944192 93.753731 2.134484 0.807637 0.736424 -9.946847 -0.557673 0.461338 15.739757 -0.211985 -1.796282 18.741385 0.456589 2.437104 -2.535632 -0.720111 -1.078107 -33.028885 -3.402991 -0.436574 5e-06 -1e-06 0.0 0.034868 0.001761 -0.072369 -0.000165 -0.010939 -0.057942 -0.001959 0.003171 -0.0897 -122.207291 -73.99884 139.110107 32.669338 -54.171539 7.150667 31.724319 0.079316 0.171687 -0.342103 -0.956338 5.482411 17.636806 -26.322962 52.411572 -19.466957 -14.395761 29.410736 -3e-06 -8.774962 -2e-06 16.312265 -18.053497 5.896109 -0.609781 -1.795676 -3.889357 -4.807149 -11.046963 -2.937883 1.1e-05 -20.976383 -1.4e-05 -5.020055 -25.034122 -4.031973 5e-06 -0.0 1e-06 -10.634641 -5.687034 -3.565607 10.57342 -17.923204 -3.113959 9e-06 -13.821451 -1.2e-05 -0.501756 -31.182255 -4.027139 -11.67312 -59.849586 7.343799 -13.982856 -7.150277 -2.875053 13.77291 -8.401608 -3.218293 0.347763 -34.212227 0.77163 -0.963033 -17.733772 2.621065 3e-06 -1e-06 -2e-06 -17.346609 -20.095446 -4.201793 21.757843 -1.638399 3.866463 3e-06 -6.338934 -8e-06 -1.697598 -22.592283 -6.194168 -2e-06 -3e-06 1e-06 34.992805 -76.293755 162.580399 42.084572 -51.74765 -8.075276 31.243448 -0.070389 -0.021758 1.610588 -4.819333 12.131202 22.182327 -20.376043 49.933723 -16.702112 -16.743769 28.476913 -3e-06 -12.690837 5e-06 16.068439 -17.828794 2.604578 -0.105917 -1.513877 -4.275923 -5.039112 -5.612958 -2.95359 3e-06 -11.020728 -1.4e-05 -6.111427 -15.895708 -3.840553 -0.0 0.0 -1e-06 -10.283486 -5.68036 -4.341863 11.028461 -11.302563 -2.372693 -1.384286 -14.238853 -6.320234 -0.625416 -26.924862 -3.827726 -4.498239 -49.727028 -3.79968 -13.708683 -7.36357 -3.720954 18.14143 -14.052941 -3.242751 1.7e-05 -18.787622 -3.1e-05 -0.429712 -8.456235 2.555545 -0.0 -1e-06 -1e-06 -15.923734 -20.09473 -5.473611 30.419659 -7.190922 1.735924 4e-06 -8.163068 -2e-05 -1.861909 -22.862007 -6.168119 -0.0 -4e-06 -3e-06 159.966141 -7.786291 -8.125381 62.89838 0.134821 -0.171551 -67.999947 1.950169 1.323433 -10.538649 1.540984 2.069597 -1.000005 -0.0 -1e-06 2.899965 5.74787 -2.890849 9.358322 -0.004774 -0.158032 -78.657562 -8.720107 2.000905 -5.683825 0.669273 1.652923 -1.000009 0.0 -0.0 
